<?xml version="1.0" encoding="UTF-8" standalone="no"?>
<svg
   id="svg8"
   version="1.1"
   viewBox="0 0 170.30415 174.32588"
   height="174.32588mm"
   width="170.30415mm"
   sodipodi:docname="sis.svg"
   inkscape:version="1.2.1 (9c6d41e410, 2022-07-14)"
   xmlns:inkscape="http://www.inkscape.org/namespaces/inkscape"
   xmlns:sodipodi="http://sodipodi.sourceforge.net/DTD/sodipodi-0.dtd"
   xmlns="http://www.w3.org/2000/svg"
   xmlns:svg="http://www.w3.org/2000/svg"
   xmlns:rdf="http://www.w3.org/1999/02/22-rdf-syntax-ns#"
   xmlns:cc="http://creativecommons.org/ns#"
   xmlns:dc="http://purl.org/dc/elements/1.1/">
  <sodipodi:namedview
     id="namedview8"
     pagecolor="#ffffff"
     bordercolor="#000000"
     borderopacity="0.25"
     inkscape:showpageshadow="2"
     inkscape:pageopacity="0.0"
     inkscape:pagecheckerboard="0"
     inkscape:deskcolor="#d1d1d1"
     inkscape:document-units="mm"
     showgrid="false"
     inkscape:zoom="0.77593294"
     inkscape:cx="304.79438"
     inkscape:cy="376.96557"
     inkscape:window-width="959"
     inkscape:window-height="1036"
     inkscape:window-x="1"
     inkscape:window-y="1"
     inkscape:window-maximized="1"
     inkscape:current-layer="svg8" />
  <defs
     id="defs2" />
  <metadata
     id="metadata5">
    <rdf:RDF>
      <cc:Work
         rdf:about="">
        <dc:format>image/svg+xml</dc:format>
        <dc:type
           rdf:resource="http://purl.org/dc/dcmitype/StillImage" />
      </cc:Work>
    </rdf:RDF>
  </metadata>
  <g
     id="layer1"
     transform="translate(-24.690082,-49.253807)">
    <path
       transform="matrix(-1.2841409,0,0,-1.2465216,-51.802312,-19.138071)"
       d="m -82.582066,-54.86618 -52.543584,-47.6843 -57.06241,-42.17228 67.5676,-21.66194 65.053481,-28.33135 -15.024017,69.34623 z"
       id="path845"
       style="fill:#00cedf;fill-opacity:1;stroke:none;stroke-width:0.265;stroke-miterlimit:4;stroke-dasharray:none;stroke-opacity:1" />
    <path
       d="m 126.0836,81.029959 -38.163009,0.482644 c -0.01304,0.723141 -0.04688,1.444879 -0.0026,2.298839 0.03344,0.644083 0.138084,1.282887 0.207006,1.924285 0.207943,2.415186 0.451979,4.854292 1.046005,7.21514 0.655813,2.60642 0.913569,2.6876 1.792135,5.33356 0.346624,1.04394 0.635863,2.105383 0.953784,3.157923 0.29409,1.01442 0.588129,2.02851 0.882205,3.04293 0.296421,0.87521 0.619147,1.74237 0.889297,2.62561 0.487041,1.59243 0.879531,3.21083 1.328466,4.81387 4.008387,-0.71785 8.033511,-1.3615 12.072251,-1.87778 11.58589,-1.48106 0.68811,0.14902 12.32569,-1.40646 1.95599,-0.26144 3.90231,-0.58579 5.85362,-0.87855 2.04714,-0.25808 4.08991,-0.55008 6.14125,-0.77424 3.80007,-0.41526 6.07298,-0.61824 9.14059,-0.70952 z m -43.155066,0.546117 -24.201255,0.30605 -11.565372,21.356334 c 0.612182,0.21118 1.249426,0.43558 1.964321,0.70824 1.730639,0.66002 6.908323,2.83454 8.414462,3.46208 6.444518,2.74629 13.291561,4.34317 20.035295,6.19644 0.661796,0.18186 1.226498,0.34214 1.803744,0.50526 3.572248,-0.384 7.135518,-0.81474 10.696067,-1.31157 -0.3774,-1.38862 -0.718064,-2.78686 -1.139511,-4.16342 -3.362148,-10.981613 1.502457,5.64085 -1.819867,-5.8225 -0.289182,-0.96606 -0.550142,-1.94027 -0.868013,-2.897743 -1.050797,-3.16517 -1.202796,-2.8657 -1.990763,-6.04686 -0.62087,-2.506572 -0.889465,-5.091644 -1.111783,-7.654414 -0.077,-0.800844 -0.188352,-1.599251 -0.230869,-2.402531 -0.03419,-0.646274 -0.0035,-1.294144 0.0014,-1.941256 6.6e-4,-0.09783 0.0066,-0.196023 0.01223,-0.29411 z M 44.805495,107.5904 41.17221,114.29901 c 0.09457,0.11624 0.18478,0.22988 0.282461,0.34816 0.563134,0.68182 1.183821,1.31605 1.779241,1.97143 1.208533,0.008 2.416894,0.0216 3.624255,0.0396 2.030816,0.0303 4.061186,0.12778 6.092231,0.12254 1.794221,-0.005 3.586805,-0.10139 5.380277,-0.15206 2.613607,-0.21451 5.190405,-0.68337 7.77538,-1.09477 -3.572987,-1.03291 -7.107532,-2.18113 -10.532265,-3.64242 -1.1076,-0.46154 -6.717132,-2.81439 -8.157155,-3.36343 -1.100514,-0.4196 -1.886312,-0.69047 -2.61114,-0.93763 z m 98.508155,3.5111 c -4.39657,0.0423 -6.63239,0.21681 -11.26227,0.72146 -2.01163,0.21927 -4.01508,0.50528 -6.0226,0.75791 -2.00397,0.29981 -4.00358,0.63093 -6.01226,0.89929 -12.7572,1.70432 0.19559,-0.19383 -12.18188,1.38697 -3.81442,0.48716 -7.61543,1.09428 -11.402854,1.76404 0.006,0.0226 -0.249892,-0.88409 0.475282,1.68359 0.148605,0.58994 0.330727,1.17278 0.469475,1.76467 1.080083,0.45832 2.150443,0.93939 3.252147,1.34485 3.95919,1.45711 8.08979,2.48974 12.19027,3.47718 9.39786,2.19952 18.64747,4.95666 28.04477,7.15856 1.86098,0.43606 3.73526,0.81736 5.60276,1.22609 3.84688,0.95931 5.39317,1.45526 9.22445,2.01289 0.52909,0.077 1.06105,0.133 1.5935,0.18478 z m -51.817816,6.42455 c -0.196271,0.0267 -0.39255,0.0524 -0.588779,0.0798 0.239219,0.0774 0.454932,0.15155 0.675193,0.22623 0.007,0.0251 -0.101619,-0.36135 -0.08642,-0.30605 z m -12.559143,1.53465 c -1.123487,0.1182 -2.247124,0.23444 -3.372748,0.3444 -1.859627,0.18163 -3.72873,0.27504 -5.583418,0.49961 -3.844981,0.46555 -7.634941,1.32326 -11.507974,1.59686 -1.875202,0.051 -3.74941,0.14769 -5.625335,0.15272 -1.891351,0.005 -3.781989,-0.077 -5.673056,-0.1125 0.295787,0.35049 0.634668,0.74257 1.098239,1.25562 0.792996,0.87764 1.650114,1.6985 2.475069,2.54771 3.312266,3.41119 2.103617,2.2773 5.601475,5.44357 1.013904,0.91778 2.107627,1.75604 3.0574,2.73685 1.604973,1.65741 3.979708,4.75004 5.267422,6.68851 0.758915,1.14243 1.418327,2.34495 2.127477,3.51737 0.626037,1.08249 1.236945,2.17299 1.877906,3.24715 1.212561,2.03207 2.533943,4.00152 3.735176,6.03995 2.033676,3.45103 2.105932,3.87086 4.099534,7.36785 0.7315,1.28311 1.501744,2.54469 2.252586,3.81715 0.722975,1.02939 1.328679,2.14698 2.16875,3.08814 0.637355,0.71411 1.490536,1.21435 2.224209,1.83443 0.839044,0.70916 1.674798,1.42232 2.497639,2.14927 2.344426,0.08 4.690153,0.10478 7.021514,-0.0527 4.380908,-0.29607 3.212294,-0.4446 7.421974,-1.19278 1.20198,-0.21364 2.41656,-0.35225 3.6249,-0.52853 2.25898,-0.023 4.51767,-0.0421 6.77646,-0.0522 -0.61714,-1.39242 -1.59444,-3.35796 -1.92692,-4.04527 -2.23168,-5.46415 -4.64383,-10.85795 -6.74099,-16.37277 -2.269356,-5.20204 -4.496378,-10.42629 -6.335986,-15.79084 -0.260444,-0.83399 -0.496726,-1.67547 -0.781602,-2.50183 -0.993601,-2.88225 -0.918175,-1.94291 -1.536763,-4.78936 -0.353812,-1.62809 -0.455059,-2.11628 -0.546215,-2.56403 -0.647931,-0.23405 -1.347071,-0.48591 -2.420256,-0.86538 -1.496342,-0.52907 -3.024526,-0.96808 -4.53677,-1.45231 -2.636771,-0.79209 -4.5081,-1.36586 -6.739697,-2.00663 z m -38.070156,2.42391 c -1.202804,10e-4 -2.405295,0.0161 -3.607487,0.0415 l -11.497016,21.22939 14.251965,24.87371 c 0.36771,0.0951 0.713469,0.27153 1.087277,0.34186 0.31217,0.0587 0.632452,0.0649 0.948628,0.0974 1.242313,0.32514 2.558205,0.15937 3.820299,0.24886 2.777555,0.19696 5.455179,0.92916 8.220352,1.21604 4.553521,0.53561 1.559687,0.20727 6.601044,0.68814 1.485634,0.1417 2.967128,0.33062 4.45616,0.43299 4.542786,0.31233 5.202745,0.16789 9.737121,0.23944 0.964338,0.0152 1.928283,0.0427 2.892312,0.071 -0.460202,-0.41419 -0.822814,-0.75338 -0.975711,-0.92696 -0.916993,-1.0409 -1.581658,-2.26995 -2.372534,-3.40489 -0.775052,-1.31493 -1.569042,-2.61915 -2.32481,-3.94472 -1.685355,-2.95591 -2.262474,-4.24845 -3.971849,-7.14915 -1.226367,-2.08108 -2.573203,-4.09303 -3.811274,-6.16753 -0.626499,-1.04971 -1.22372,-2.11559 -1.835342,-3.17361 -1.895881,-3.16698 -3.860985,-6.39671 -6.464329,-9.08224 -0.964436,-0.99488 -2.07409,-1.84506 -3.101898,-2.77772 -3.62778,-3.29193 -2.47571,-2.21281 -5.811061,-5.6478 -0.90516,-0.93836 -1.843571,-1.84709 -2.715613,-2.81478 -2.564151,-2.84537 -1.844803,-2.3031 -3.526234,-4.39092 z m 51.853938,1.93119 c 0.138867,0.46594 0.265974,0.81713 0.173473,0.0622 -0.04358,-0.0158 -0.127985,-0.0457 -0.173473,-0.0622 z m 5.544077,2.34347 c 0.376818,1.5732 0.337209,0.9658 1.138217,3.27229 0.319121,0.91887 0.58609,1.85438 0.878983,2.78148 1.79333,5.19973 3.95463,10.26569 6.15607,15.31071 2.11319,5.54908 4.53674,10.97838 6.78484,16.47648 0.98525,1.90914 1.91791,3.81973 2.56083,5.84764 4.3482,0.0208 8.69569,0.10139 13.04216,0.3004 4.30527,0.0518 6.69604,0.16173 11.00175,-0.11366 1.8225,-0.1166 3.64165,-0.29478 5.45315,-0.5279 l 15.1935,-28.05612 -0.1896,-0.3312 c -0.33542,-0.0441 -0.67036,-0.0927 -1.00602,-0.13449 -1.50269,-0.18678 -3.01844,-0.27421 -4.51613,-0.49584 -3.96665,-0.58701 -5.48543,-1.06988 -9.3934,-2.04619 -1.91359,-0.41951 -3.83374,-0.81179 -5.74077,-1.25876 -9.38668,-2.20011 -18.62628,-4.95205 -28.01317,-7.15105 -4.3612,-1.05725 -8.72881,-2.17244 -12.941558,-3.72099 -0.182276,-0.067 -0.240665,-0.0906 -0.408852,-0.15272 z m -55.100286,47.36814 16.98821,29.64859 43.112506,-0.54548 c -0.80368,-1.93204 -1.37366,-3.96893 -2.44282,-5.7911 -2.207023,-4.14044 0.0826,0.0456 -2.517625,-4.35259 -1.899537,-3.21304 -3.545794,-6.56415 -6.614591,-8.9226 -1.049832,-0.88184 -2.112962,-1.74923 -3.14962,-2.64574 -3.85435,-3.33328 -2.537842,-2.28829 -4.924342,-4.44748 -1.431056,-0.0606 -2.860771,-0.12961 -4.285909,-0.18537 -1.525916,-0.0394 -3.051787,-0.0943 -4.578039,-0.11819 -4.60008,-0.072 -5.132504,0.076 -9.822893,-0.24258 -3.812987,-0.25896 -7.640957,-0.7073 -11.436395,-1.15192 -2.762441,-0.2558 -5.430834,-1.03237 -8.202297,-1.21353 -0.619383,-0.0405 -1.242383,0.013 -1.862427,-0.0162 -0.109318,-0.005 -0.170287,-0.0105 -0.263758,-0.0157 z m 99.302656,1.17454 c -2.65552,0.23094 -5.32165,0.35286 -7.98433,0.38462 -1.90544,0.0227 -3.81081,-0.0423 -5.71626,-0.0635 -3.95623,-0.18137 -7.91343,-0.26319 -11.87106,-0.29223 0.24942,0.84327 0.53765,1.67702 0.78806,2.52005 0.19874,0.62406 0.32968,1.2724 0.59587,1.87213 1.9439,4.37969 -0.31409,-2.13046 1.67864,3.1598 0.66465,1.76448 0.96444,3.67027 1.3491,5.50452 0.1374,0.51745 0.29856,1.02994 0.41208,1.55286 0.33997,1.566 0.22025,1.66043 0.57847,3.10011 0.30051,1.20783 0.77254,2.34322 1.30783,3.46584 0.70933,1.31276 0.84639,2.78618 1.2401,4.18922 0.0745,0.26528 0.21562,0.5103 0.28569,0.77675 0.33295,1.266 0.0983,1.33392 0.24764,1.47871 l 2.13005,-0.027 z m -30.71977,0.0182 c -2.65638,0.007 -5.31279,0.029 -7.96948,0.0559 -0.96701,0.15666 -1.93896,0.28837 -2.90134,0.47006 -3.949342,0.74565 -3.163341,0.89374 -7.599321,1.21665 -0.710404,0.0517 -1.421829,0.0836 -2.133929,0.10689 1.256776,1.11262 2.520987,2.21797 3.81192,3.30122 3.524739,2.72907 5.53982,6.5579 7.73345,10.26746 2.66847,4.51252 -0.0428,-0.40838 2.56859,4.44434 1.28418,2.1885 1.92432,4.65516 2.95357,6.94741 0.16065,0.3578 0.3707,0.69198 0.57137,1.03064 l 11.60342,-0.14705 c -0.11806,-0.43639 -0.30628,-0.8526 -0.42949,-1.28766 -0.30364,-1.07228 -0.35322,-2.19592 -0.90414,-3.20066 -0.68238,-1.48397 -1.27352,-2.95832 -1.66315,-4.54552 -0.79492,-3.23812 0.13245,0.13019 -0.51462,-2.82735 -0.13168,-0.60185 -0.31216,-1.1929 -0.46819,-1.78917 -0.30636,-1.46152 -0.50149,-3.06669 -1.01053,-4.4808 -0.62734,-1.74272 -1.02841,-1.74766 -1.89404,-3.71534 -0.27666,-0.6289 -0.41578,-1.30716 -0.6236,-1.96074 -0.16886,-0.56856 -0.86488,-2.89072 -1.13049,-3.88628 z"
       style="fill:#236f75;fill-opacity:1;stroke:none;stroke-width:0.405998;stroke-miterlimit:4;stroke-dasharray:none;stroke-opacity:1"
       id="path851" />
  </g>
</svg>
